<svg width="53" height="53" viewBox="0 0 53 53" fill="none" xmlns="http://www.w3.org/2000/svg">
<g id="Icon">
<circle id="Background" cx="26.1658" cy="26.1658" r="25.6658" fill="#FFECBB" stroke="#E5BD63"/>
<path id="Icon_2" d="M22.6124 25.1894C23.6502 27.3325 25.3831 29.061 27.5288 30.0932C27.6871 30.1682 27.8621 30.2006 28.0368 30.1874C28.2114 30.1741 28.3795 30.1156 28.5247 30.0176L31.6762 27.9124C31.8155 27.8179 31.9764 27.7603 32.1439 27.7449C32.3114 27.7294 32.4802 27.7567 32.6343 27.8241L38.534 30.358C38.7356 30.4419 38.9041 30.5898 39.0134 30.7788C39.1228 30.9679 39.1669 31.1877 39.1391 31.4043C38.9521 32.8638 38.2397 34.2051 37.1353 35.1773C36.0308 36.1495 34.61 36.6859 33.1386 36.6863C28.5916 36.6863 24.2308 34.88 21.0156 31.6648C17.8004 28.4496 15.9941 24.0888 15.9941 19.5419C15.9945 18.0705 16.5309 16.6496 17.5031 15.5451C18.4753 14.4407 19.8167 13.7283 21.2761 13.5413C21.4928 13.5135 21.7125 13.5577 21.9016 13.667C22.0906 13.7763 22.2385 13.9448 22.3224 14.1464L24.8563 20.0587C24.9222 20.2104 24.9497 20.376 24.9366 20.5409C24.9234 20.7058 24.8698 20.8649 24.7807 21.0042L22.6754 24.2062C22.5817 24.351 22.5267 24.5174 22.5156 24.6896C22.5046 24.8617 22.5379 25.0338 22.6124 25.1894V25.1894Z" stroke="#E5BD63" stroke-width="2" stroke-linecap="round" stroke-linejoin="round"/>
</g>
</svg>
