<svg width="58" height="59" viewBox="0 0 58 59" fill="none" xmlns="http://www.w3.org/2000/svg">
<g id="Group 16">
<path id="Vector" d="M19.4352 18.9867V26.0244C19.4352 31.0951 23.6383 35.2973 28.8856 35.3356C30.1408 35.344 31.3854 35.1124 32.5477 34.654C33.7099 34.1956 34.7668 33.5195 35.6575 32.6647C36.5482 31.81 37.2551 30.7933 37.7375 29.6734C38.2199 28.5535 38.4682 27.3524 38.4681 26.1393V18.9867C38.4681 18.7157 38.3567 18.4558 38.1584 18.2641C37.9601 18.0725 37.6912 17.9648 37.4108 17.9648H20.4926C20.2121 17.9648 19.9432 18.0725 19.7449 18.2641C19.5466 18.4558 19.4352 18.7157 19.4352 18.9867Z" stroke="#E5BD63" stroke-width="2" stroke-linecap="round" stroke-linejoin="round"/>
<path id="Vector_2" d="M12.7241 13.43V25.8485C12.7241 34.7962 19.8913 42.2113 28.8389 42.2789C30.9794 42.2937 33.1017 41.885 35.0835 41.0761C37.0654 40.2673 38.8676 39.0743 40.3864 37.566C41.9052 36.0576 43.1106 34.2637 43.9332 32.2875C44.7557 30.3113 45.1792 28.1919 45.1791 26.0514V13.43C45.1791 12.9518 44.9891 12.4932 44.651 12.1551C44.3129 11.8169 43.8543 11.627 43.3761 11.627H14.5272C14.049 11.627 13.5904 11.8169 13.2522 12.1551C12.9141 12.4932 12.7241 12.9518 12.7241 13.43Z" stroke="#E5BD63" stroke-width="2" stroke-linecap="round" stroke-linejoin="round"/>
<path id="Vector_3" d="M21.7396 51.2939H36.1641" stroke="#E5BD63" stroke-width="2" stroke-linecap="round" stroke-linejoin="round"/>
<path id="Vector_4" d="M28.9517 42.2793V51.2946" stroke="#E5BD63" stroke-width="2" stroke-linecap="round" stroke-linejoin="round"/>
<path id="Vector_5" d="M44.7736 29.6575H46.9823C48.8951 29.6575 50.7296 28.8977 52.0821 27.5451C53.4347 26.1926 54.1945 24.3581 54.1945 22.4453V18.8392C54.1945 18.361 54.0046 17.9024 53.6664 17.5642C53.3283 17.2261 52.8697 17.0361 52.3915 17.0361H45.1792" stroke="#E5BD63" stroke-width="2" stroke-linecap="round" stroke-linejoin="round"/>
<path id="Vector_6" d="M13.1751 29.6575H10.8987C8.98594 29.6575 7.15149 28.8977 5.79893 27.5451C4.44638 26.1926 3.68652 24.3581 3.68652 22.4453V18.8392C3.68652 18.361 3.87649 17.9024 4.21463 17.5642C4.55276 17.2261 5.01138 17.0361 5.48958 17.0361H12.7018" stroke="#E5BD63" stroke-width="2" stroke-linecap="round" stroke-linejoin="round"/>
</g>
</svg>
