<svg width="56" height="56" viewBox="0 0 56 56" fill="none" xmlns="http://www.w3.org/2000/svg">
<g id="Icon">
<path id="Vector" d="M27.5922 39.039C32.3301 39.039 36.1708 35.1982 36.1708 30.4604C36.1708 25.7226 32.3301 21.8818 27.5922 21.8818C22.8544 21.8818 19.0137 25.7226 19.0137 30.4604C19.0137 35.1982 22.8544 39.039 27.5922 39.039Z" stroke="#E5BD63" stroke-width="2" stroke-linecap="round" stroke-linejoin="round"/>
<path id="Vector_2" d="M42.176 25.3135C44.1743 25.3102 46.1457 25.7738 47.933 26.6674C49.7203 27.5611 51.274 28.86 52.4703 30.4606" stroke="#E5BD63" stroke-width="2" stroke-linecap="round" stroke-linejoin="round"/>
<path id="Vector_3" d="M2.71436 30.4606C3.91064 28.86 5.46439 27.5611 7.25169 26.6674C9.03898 25.7738 11.0104 25.3102 13.0086 25.3135" stroke="#E5BD63" stroke-width="2" stroke-linecap="round" stroke-linejoin="round"/>
<path id="Vector_4" d="M15.2393 46.7601C16.3691 44.4463 18.1261 42.4962 20.3101 41.1322C22.4942 39.7681 25.0174 39.0449 27.5924 39.0449C30.1674 39.0449 32.6906 39.7681 34.8746 41.1322C37.0587 42.4962 38.8157 44.4463 39.9455 46.7601" stroke="#E5BD63" stroke-width="2" stroke-linecap="round" stroke-linejoin="round"/>
<path id="Vector_5" d="M13.0087 25.3136C11.7062 25.3149 10.4301 24.9455 9.32971 24.2486C8.22928 23.5516 7.34993 22.5559 6.79439 21.3777C6.23885 20.1996 6.03008 18.8876 6.19245 17.5952C6.35483 16.3028 6.88165 15.0833 7.71137 14.0792C8.54109 13.0751 9.63943 12.3278 10.8781 11.9248C12.1167 11.5217 13.4445 11.4794 14.7062 11.8029C15.968 12.1264 17.1116 12.8023 18.0035 13.7516C18.8954 14.701 19.4987 15.8845 19.7429 17.164" stroke="#E5BD63" stroke-width="2" stroke-linecap="round" stroke-linejoin="round"/>
<path id="Vector_6" d="M35.4417 17.164C35.6859 15.8845 36.2892 14.701 37.1811 13.7516C38.073 12.8023 39.2166 12.1264 40.4784 11.8029C41.7401 11.4794 43.0679 11.5217 44.3065 11.9248C45.5451 12.3278 46.6435 13.0751 47.4732 14.0792C48.3029 15.0833 48.8297 16.3028 48.9921 17.5952C49.1545 18.8876 48.9457 20.1996 48.3902 21.3777C47.8346 22.5559 46.9553 23.5516 45.8549 24.2486C44.7544 24.9455 43.4784 25.3149 42.1758 25.3136" stroke="#E5BD63" stroke-width="2" stroke-linecap="round" stroke-linejoin="round"/>
</g>
</svg>
