<svg width="61" height="61" viewBox="0 0 61 61" fill="none" xmlns="http://www.w3.org/2000/svg">
<g id="Icon">
<g id="Icon_2">
<path id="Vector" d="M19.2156 47.3413C23.374 47.3413 26.7451 43.9702 26.7451 39.8118C26.7451 35.6533 23.374 32.2822 19.2156 32.2822C15.0571 32.2822 11.686 35.6533 11.686 39.8118C11.686 43.9702 15.0571 47.3413 19.2156 47.3413Z" stroke="#E5BD63" stroke-width="2" stroke-linecap="round" stroke-linejoin="round"/>
<path id="Vector_2" d="M7.92139 52.988C9.23643 51.2346 10.9416 49.8115 12.902 48.8313C14.8623 47.8511 17.024 47.3408 19.2157 47.3408C21.4074 47.3408 23.5691 47.8511 25.5294 48.8313C27.4898 49.8115 29.195 51.2346 30.51 52.988" stroke="#E5BD63" stroke-width="2" stroke-linecap="round" stroke-linejoin="round"/>
<path id="Vector_3" d="M19.2156 22.8696C23.374 22.8696 26.7451 19.4985 26.7451 15.3401C26.7451 11.1816 23.374 7.81055 19.2156 7.81055C15.0571 7.81055 11.686 11.1816 11.686 15.3401C11.686 19.4985 15.0571 22.8696 19.2156 22.8696Z" stroke="#E5BD63" stroke-width="2" stroke-linecap="round" stroke-linejoin="round"/>
<path id="Vector_4" d="M7.92139 28.5173C9.23643 26.7639 10.9416 25.3408 12.902 24.3606C14.8623 23.3804 17.024 22.8701 19.2157 22.8701C21.4074 22.8701 23.5691 23.3804 25.5294 24.3606C27.4898 25.3408 29.195 26.7639 30.51 28.5173" stroke="#E5BD63" stroke-width="2" stroke-linecap="round" stroke-linejoin="round"/>
<path id="Vector_5" d="M41.8044 47.3413C45.9629 47.3413 49.334 43.9702 49.334 39.8118C49.334 35.6533 45.9629 32.2822 41.8044 32.2822C37.646 32.2822 34.2749 35.6533 34.2749 39.8118C34.2749 43.9702 37.646 47.3413 41.8044 47.3413Z" stroke="#E5BD63" stroke-width="2" stroke-linecap="round" stroke-linejoin="round"/>
<path id="Vector_6" d="M30.51 52.988C31.825 51.2346 33.5303 49.8115 35.4906 48.8313C37.451 47.8511 39.6126 47.3408 41.8043 47.3408C43.9961 47.3408 46.1577 47.8511 48.118 48.8313C50.0784 49.8115 51.7836 51.2346 53.0986 52.988" stroke="#E5BD63" stroke-width="2" stroke-linecap="round" stroke-linejoin="round"/>
<path id="Vector_7" d="M41.8044 22.8696C45.9629 22.8696 49.334 19.4985 49.334 15.3401C49.334 11.1816 45.9629 7.81055 41.8044 7.81055C37.646 7.81055 34.2749 11.1816 34.2749 15.3401C34.2749 19.4985 37.646 22.8696 41.8044 22.8696Z" stroke="#E5BD63" stroke-width="2" stroke-linecap="round" stroke-linejoin="round"/>
<path id="Vector_8" d="M30.51 28.5173C31.825 26.7639 33.5303 25.3408 35.4906 24.3606C37.451 23.3804 39.6126 22.8701 41.8043 22.8701C43.9961 22.8701 46.1577 23.3804 48.118 24.3606C50.0784 25.3408 51.7836 26.7639 53.0986 28.5173" stroke="#E5BD63" stroke-width="2" stroke-linecap="round" stroke-linejoin="round"/>
</g>
</g>
</svg>
