<svg width="53" height="53" viewBox="0 0 53 53" fill="none" xmlns="http://www.w3.org/2000/svg">
<g id="Icon">
<circle id="Ellipse 15" cx="26.1658" cy="26.6854" r="26.1658" fill="#EAEAEA"/>
<path id="Vector" d="M25.7501 27.6511C27.789 27.6511 29.4419 25.9982 29.4419 23.9593C29.4419 21.9204 27.789 20.2676 25.7501 20.2676C23.7112 20.2676 22.0583 21.9204 22.0583 23.9593C22.0583 25.9982 23.7112 27.6511 25.7501 27.6511Z" stroke="black" stroke-width="2" stroke-linecap="round" stroke-linejoin="round"/>
<path id="Vector_2" d="M34.9783 23.9599C34.9783 32.2663 25.7489 38.7269 25.7489 38.7269C25.7489 38.7269 16.5195 32.2663 16.5195 23.9599C16.5195 21.5121 17.4919 19.1645 19.2228 17.4337C20.9536 15.7028 23.3011 14.7305 25.7489 14.7305C28.1967 14.7305 30.5442 15.7028 32.2751 17.4337C34.0059 19.1645 34.9783 21.5121 34.9783 23.9599V23.9599Z" stroke="black" stroke-width="2" stroke-linecap="round" stroke-linejoin="round"/>
</g>
</svg>
