<svg width="86" height="87" viewBox="0 0 86 87" fill="none" xmlns="http://www.w3.org/2000/svg">
<g id="Icon">
<g id="Group">
<g id="Group_2">
<g id="Group_3">
<path id="Vector" d="M58.7667 76.3749H55.9V69.2082V14.7415C55.9 14.4549 55.7567 14.0249 55.6133 13.8815L51.4567 1.41154C51.3134 0.838203 50.74 0.408203 50.1667 0.408203C49.5933 0.408203 49.02 0.838203 48.8767 1.41154L44.72 13.8815C44.5767 14.1682 44.4333 14.4549 44.4333 14.7415V69.2082V84.9749C44.4333 85.8349 45.0067 86.4082 45.8667 86.4082H54.4667C55.3267 86.4082 55.9 85.8349 55.9 84.9749V79.2415H60.2C61.06 79.2415 61.6334 78.6682 61.6334 77.8082V34.8082H58.7667V76.3749ZM47.3 16.1749H53.0333V67.7749H47.3V16.1749ZM50.1667 6.4282L52.46 13.3082H47.8734L50.1667 6.4282ZM53.0333 83.5415H47.3V70.6415H53.0333V83.5415Z" fill="#E5BD63"/>
<path id="Vector_2" d="M84.5667 0.408203H68.8C67.94 0.408203 67.3667 0.981536 67.3667 1.84154V84.9749C67.3667 85.8349 67.94 86.4082 68.8 86.4082H84.5667C85.4267 86.4082 86 85.8349 86 84.9749V1.84154C86 0.981536 85.4267 0.408203 84.5667 0.408203ZM83.1334 83.5415H70.2334V73.5082H77.4V70.6415H70.2334V59.1749H77.4V56.3082H70.2334V44.8415H77.4V41.9749H70.2334V30.5082H77.4V27.6415H70.2334V16.1749H77.4V13.3082H70.2334V3.27487H83.1334V83.5415Z" fill="#E5BD63"/>
<path id="Vector_3" d="M20.0667 14.7412C9.03 14.7412 0 23.7712 0 34.8079C0 42.5479 4.44333 49.5712 11.4667 52.8679V63.4745V70.6412C11.4667 71.5012 12.04 72.0745 12.9 72.0745H18.6333V76.3745H21.5V72.0745H27.2333C28.0933 72.0745 28.6667 71.5012 28.6667 70.6412V63.4745V52.8679C35.69 49.5712 40.1333 42.5479 40.1333 34.8079C40.1333 23.7712 31.1033 14.7412 20.0667 14.7412ZM25.8 69.2079H14.3333V64.9079H25.8V69.2079ZM26.66 50.7179C26.0867 50.8612 25.8 51.4345 25.8 52.0079V62.0412H14.3333V59.1745H21.5V56.3079H14.3333V52.0079C14.3333 51.4345 14.0467 50.8612 13.4733 50.7179C7.02333 47.9945 2.86667 41.6879 2.86667 34.8079C2.86667 25.3479 10.6067 17.6079 20.0667 17.6079C29.5267 17.6079 37.2667 25.3479 37.2667 34.8079C37.2667 41.6879 33.11 47.9945 26.66 50.7179Z" fill="#E5BD63"/>
<path id="Vector_4" d="M23.3633 26.6387L20.0666 29.9353L16.77 26.6387L14.7633 28.6453L18.6333 32.5153V47.7087H21.5V32.5153L25.37 28.6453L23.3633 26.6387Z" fill="#E5BD63"/>
</g>
</g>
</g>
</g>
</svg>
