<svg width="129" height="160" viewBox="0 0 129 160" fill="none" xmlns="http://www.w3.org/2000/svg">
<g id="Icon">
<rect id="Background" y="160" width="160" height="129" rx="23" transform="rotate(-90 0 160)" fill="#E5BD63" fill-opacity="0.26"/>
<g id="Icon_2">
<path id="Vector" d="M81.6645 89.8633L72.9814 98.5198C71.8689 99.6283 70.3702 100.247 68.7995 100.247H45.9226C42.6523 100.247 40 97.5918 40 94.3179V59.9291C40 56.6552 42.6523 54 45.9226 54H77.4826C80.7529 54 83.4052 56.6552 83.4052 59.9291V85.6614C83.4103 87.2391 82.782 88.7497 81.6645 89.8633Z" stroke="white" stroke-width="2.5" stroke-miterlimit="10"/>
<path id="Vector_2" d="M86.9281 95.3956L78.245 104.052C77.1325 105.161 75.6339 105.779 74.0631 105.779H51.1914C47.9211 105.779 45.2688 103.124 45.2688 99.8501V65.4613C45.2688 62.1874 47.9211 59.5322 51.1914 59.5322H82.7513C86.0217 59.5322 88.674 62.1874 88.674 65.4613V91.1936C88.674 92.7713 88.0456 94.2819 86.9281 95.3956Z" fill="#B5A596"/>
<path id="Rectangle 297" d="M53.7258 73.5497C53.7258 72.9063 54.2474 72.3848 54.8908 72.3848H79.7427C80.386 72.3848 80.9076 72.9063 80.9076 73.5497C80.9076 74.1931 80.386 74.7146 79.7427 74.7146H54.8908C54.2474 74.7146 53.7258 74.1931 53.7258 73.5497Z" fill="white"/>
<path id="Rectangle 298" d="M53.7258 78.9862C53.7258 78.3428 54.2474 77.8213 54.8908 77.8213H79.7427C80.386 77.8213 80.9076 78.3428 80.9076 78.9862C80.9076 79.6296 80.386 80.1512 79.7427 80.1512H54.8908C54.2474 80.1512 53.7258 79.6296 53.7258 78.9862Z" fill="white"/>
<path id="Rectangle 299" d="M53.7259 84.4218C53.7259 83.7784 54.2475 83.2568 54.8909 83.2568H79.7427C80.3861 83.2568 80.9077 83.7784 80.9077 84.4218C80.9077 85.0651 80.3861 85.5867 79.7427 85.5867H54.8909C54.2475 85.5867 53.7259 85.0651 53.7259 84.4218Z" fill="white"/>
<path id="Rectangle 300" d="M53.7259 89.8583C53.7259 89.2149 54.2475 88.6934 54.8909 88.6934H67.3168C67.9602 88.6934 68.4817 89.2149 68.4817 89.8583C68.4817 90.5017 67.9602 91.0232 67.3168 91.0232H54.8909C54.2475 91.0232 53.7259 90.5017 53.7259 89.8583Z" fill="white"/>
</g>
</g>
</svg>
