<svg width="129" height="160" viewBox="0 0 129 160" fill="none" xmlns="http://www.w3.org/2000/svg">
<g id="Icon">
<rect id="Background" y="160" width="160" height="129" rx="23" transform="rotate(-90 0 160)" fill="#E5BD63" fill-opacity="0.26"/>
<g id="Icon_2">
<path id="Vector" d="M89.1617 108.968C92.2443 108.968 94.4919 106.079 93.7598 103.093C91.1176 92.334 81.3723 84.3447 69.7569 84.3447C58.1414 84.3447 48.3904 92.334 45.7539 103.098C45.0219 106.084 47.2695 108.968 50.352 108.968H89.1617Z" stroke="white" stroke-width="2.5" stroke-miterlimit="10"/>
<path id="Vector_2" d="M69.7568 78.9653C77.151 78.9653 83.1451 72.9928 83.1451 65.6252C83.1451 58.2577 77.151 52.2852 69.7568 52.2852C62.3626 52.2852 56.3684 58.2577 56.3684 65.6252C56.3684 72.9928 62.3626 78.9653 69.7568 78.9653Z" stroke="white" stroke-width="2.5" stroke-miterlimit="10"/>
<path id="Vector_3" d="M41.413 101.218C43.6205 92.2255 49.3053 85.1651 59.2851 81.8828C48.0414 82.2589 37.7185 89.4105 35.1392 99.9127C34.4071 102.899 36.6547 105.782 39.7373 105.782H42.2422C41.373 104.506 41.0069 102.876 41.413 101.218Z" fill="#B5A596"/>
<path id="Vector_4" d="M52.3592 62.9701C52.3592 54.7188 59.0734 48.0288 67.3546 48.0288C70.2828 48.0288 73.0165 48.8665 75.3213 50.3139C72.7763 46.513 68.4298 44 63.4943 44C55.6591 44 49.3052 50.331 49.3052 58.1436C49.3052 61.8988 50.7807 65.3122 53.177 67.848C52.6509 66.3151 52.3592 64.6797 52.3592 62.9701Z" fill="#B5A596"/>
</g>
</g>
</svg>
